<?xml version="1.0" encoding="UTF-8"?>
<svg version="1.1" xmlns="http://www.w3.org/2000/svg" width="64" height="64">
<path d="M0 0 C1.32 0 2.64 0 4 0 C4 0.99 4 1.98 4 3 C5.32 3.33 6.64 3.66 8 4 C8 2.68 8 1.36 8 0 C10.64 0 13.28 0 16 0 C16 1.32 16 2.64 16 4 C18.64 4 21.28 4 24 4 C24 5.32 24 6.64 24 8 C25.32 8 26.64 8 28 8 C28 9.32 28 10.64 28 12 C29.32 12 30.64 12 32 12 C32 14.64 32 17.28 32 20 C33.32 20 34.64 20 36 20 C36 25.28 36 30.56 36 36 C34.68 36 33.36 36 32 36 C32 38.64 32 41.28 32 44 C30.68 44 29.36 44 28 44 C28 45.32 28 46.64 28 48 C26.68 48 25.36 48 24 48 C24 49.32 24 50.64 24 52 C20.535 52.495 20.535 52.495 17 53 C16.67 53.99 16.34 54.98 16 56 C13.36 56 10.72 56 8 56 C8 54.68 8 53.36 8 52 C7.4225 52.66 6.845 53.32 6.25 54 C4 56 4 56 0 56 C-0.33 55.01 -0.66 54.02 -1 53 C-4.465 52.505 -4.465 52.505 -8 52 C-8 50.68 -8 49.36 -8 48 C-9.32 48 -10.64 48 -12 48 C-12 46.68 -12 45.36 -12 44 C-13.32 44 -14.64 44 -16 44 C-16.33 41.69 -16.66 39.38 -17 37 C-17.99 36.67 -18.98 36.34 -20 36 C-20 30.72 -20 25.44 -20 20 C-19.01 19.67 -18.02 19.34 -17 19 C-16.67 16.69 -16.34 14.38 -16 12 C-14.68 12 -13.36 12 -12 12 C-12 10.68 -12 9.36 -12 8 C-10.68 8 -9.36 8 -8 8 C-8 6.68 -8 5.36 -8 4 C-5.36 4 -2.72 4 0 4 C0 2.68 0 1.36 0 0 Z M-6.78125 13.34375 C-8.44546615 15.60537707 -8.22189312 17.26331821 -8 20 C-8.99 20 -9.98 20 -11 20 C-11.33 21.32 -11.66 22.64 -12 24 C-9.36 24 -6.72 24 -4 24 C-4 22.68 -4 21.36 -4 20 C-2.68 20 -1.36 20 0 20 C0 18.68 0 17.36 0 16 C1.32 15.67 2.64 15.34 4 15 C4 14.01 4 13.02 4 12 C2.56344146 11.91868537 1.1255517 11.86066441 -0.3125 11.8125 C-1.11300781 11.77769531 -1.91351563 11.74289062 -2.73828125 11.70703125 C-5.06535341 11.8188591 -5.06535341 11.8188591 -6.78125 13.34375 Z M12 12 C12 13.32 12 14.64 12 16 C13.32 16 14.64 16 16 16 C16 17.32 16 18.64 16 20 C17.32 20 18.64 20 20 20 C20 21.32 20 22.64 20 24 C21.32 24 22.64 24 24 24 C24 21.36 24 18.72 24 16 C22.68 16 21.36 16 20 16 C20 14.68 20 13.36 20 12 C17.36 12 14.72 12 12 12 Z M-12 32 C-11.67 33.32 -11.34 34.64 -11 36 C-10.01 36 -9.02 36 -8 36 C-8 37.32 -8 38.64 -8 40 C-6.68 40 -5.36 40 -4 40 C-4 41.32 -4 42.64 -4 44 C-2.68 44 -1.36 44 0 44 C0 44.99 0 45.98 0 47 C1.32 47.33 2.64 47.66 4 48 C4.31563182 42.73946963 3.66590937 39.55426184 1 35 C-0.65 35.33 -2.3 35.66 -4 36 C-4.33 34.68 -4.66 33.36 -5 32 C-7.31 32 -9.62 32 -12 32 Z M21 32 C20.67 33.32 20.34 34.64 20 36 C18.68 36 17.36 36 16 36 C16 37.32 16 38.64 16 40 C14.68 40 13.36 40 12 40 C12 42.64 12 45.28 12 48 C13.32 47.67 14.64 47.34 16 47 C16 46.01 16 45.02 16 44 C17.32 44 18.64 44 20 44 C20 42.68 20 41.36 20 40 C21.32 40 22.64 40 24 40 C24 37.36 24 34.72 24 32 C23.01 32 22.02 32 21 32 Z M15 34 C14.67 34.66 14.34 35.32 14 36 C14.66 36 15.32 36 16 36 C15.67 35.34 15.34 34.68 15 34 Z " fill="#FFFFFF" transform="translate(24,4)"/>
</svg>
