<?xml version="1.0" encoding="UTF-8"?>
<svg viewBox="0 0 192 192" xmlns="http://www.w3.org/2000/svg">
  <path fill="#ffffff" opacity="0.5" stroke="none" d="M 60.183 49.462 C 54.667 49.462 51.879 55.092 48.975 58.964 C 42.842 67.141 38.985 76.598 38.985 87.228 C 38.985 90.236 37.822 96.936 39.472 99.411 C 41.428 102.345 43.22 107.732 44.345 111.107 C 44.7 112.171 45.132 114.087 45.807 114.761 C 47.139 116.093 46.283 120.11 47.756 121.584 C 49.136 122.964 49.804 125.68 50.68 127.431 C 52.295 130.661 54.405 134.151 55.797 136.934 C 56.401 138.141 56.161 139.856 56.772 141.076 C 58.659 144.852 62.784 148.956 67.005 151.066 C 68.945 152.036 69.586 155.768 71.391 156.67 C 74.879 158.414 77.871 161.859 81.624 163.736 C 84.672 165.26 87.861 164.191 90.883 165.198 C 93.578 166.096 98.782 165.543 100.629 167.391 C 101.163 167.924 103.956 167.471 104.772 167.878 C 106.941 168.963 110.845 168.104 112.569 169.827 C 113.285 170.544 116.503 169.758 117.442 170.071 C 119.907 170.893 123.202 169.961 125.726 170.802 C 133.746 173.475 147.398 172.277 153.015 166.66 C 156.113 163.561 159.914 159.929 162.03 155.695 C 163.253 153.25 162.446 149.783 163.492 147.168 C 165.315 142.611 166.443 135.172 165.685 129.868 C 165.339 127.445 163.622 124.927 163.249 122.315 C 162.39 116.307 161.997 110.243 160.569 104.528 C 160.144 102.829 160.59 100.428 159.838 98.924 C 157.52 94.288 155.229 88.998 153.503 83.817 C 150.704 75.422 149.052 67.363 145.218 59.695 C 143.172 55.603 138.45 56.338 135.959 53.848 C 135.065 52.954 132.471 52.347 131.086 51.655 C 125.508 48.865 119.533 45.961 113.056 43.371 C 111.567 42.775 109.086 42.804 107.452 42.396 C 107.054 42.297 105.321 42.702 105.015 42.396 C 103.619 41 98.977 42.449 97.462 40.934 C 95.132 38.604 85.713 39.409 82.599 40.447 C 81.156 40.928 78.495 40.652 77.482 41.665 C 76.985 42.162 75.012 41.676 74.315 41.909 C 72.712 42.443 70.935 42.608 69.685 43.858 C 69.089 44.454 67.456 44.242 66.761 44.589 C 64.379 45.78 56.772 47.884 56.772 50.68"/>
  <path fill="#ffffff" opacity="0.5" stroke="none" d="M 48 40.447 C 48 46.133 46.039 55.322 42.152 59.208 C 41.094 60.267 37.834 63.905 35.574 61.645 C 33.936 60.007 34.599 54.615 34.599 52.142 C 34.599 42.586 35.207 35.333 38.985 27.777 C 40.168 25.411 37.968 15.938 43.614 18.761 C 45.832 19.87 46.23 21.805 48.244 23.147 C 52.032 25.673 56.591 28.147 58.721 32.406 C 60.25 35.464 60.72 38.791 62.863 40.934 C 64.9 42.971 60.337 43.614 59.452 43.614 C 56.032 43.614 52.456 42.953 50.437 40.934"/>
  <path fill="#ffffff" opacity="0.5" stroke="none" d="M 102.822 36.061 C 99.654 36.061 96.323 38.659 93.076 37.036 C 91.685 36.34 91.354 30.978 92.102 29.482 C 93.03 27.626 92.662 22.344 94.051 20.954 C 95.096 19.909 93.557 15.126 94.051 13.645 C 94.918 11.044 96.18 7.924 97.218 5.848 C 97.884 4.516 102.084 4.378 103.066 5.36 C 104.343 6.638 105.015 10.323 105.015 12.426 C 105.015 15.188 105.015 17.949 105.015 20.711 C 105.015 25.015 105.015 29.32 105.015 33.624"/>

  <path fill="#000000" opacity="1" stroke="none" d=" M89.375000,193.000000 C87.723808,191.907501 86.644440,190.762680 86.256111,188.977905 C84.802452,182.296860 79.815132,179.279938 73.048714,181.059570 C67.742928,182.455063 63.034924,185.491165 57.575439,186.618713 C53.382252,187.484741 49.087826,188.170242 45.305397,186.325394 C38.024815,182.774338 29.434719,182.310394 22.996914,176.960678 C17.414156,172.321518 17.068966,165.463318 22.301844,160.462402 C25.080252,157.807175 26.748232,154.807907 27.894169,151.242844 C29.441338,146.429520 31.974850,142.250565 35.868908,138.787918 C39.996342,135.117752 41.715710,131.013641 38.588387,125.096481 C32.797153,114.138977 30.200268,102.212769 28.377607,89.912560 C26.685640,78.494316 25.972328,67.051735 26.229609,55.668560 C26.521557,42.751499 29.657293,30.078733 33.782982,17.790291 C35.249611,13.421905 37.700844,12.815306 41.415325,15.724940 C50.220245,22.622028 58.459785,30.163666 65.063713,39.261486 C67.248665,42.271549 69.329575,43.240932 73.008621,41.831020 C76.859810,40.355141 80.989685,39.278828 85.083221,38.856678 C89.043465,38.448277 90.494171,36.929886 90.781013,32.985638 C91.395584,24.535065 92.646027,16.140593 94.791626,7.916927 C96.359573,1.907285 98.107384,1.430532 102.885445,5.231517 C115.882614,15.570862 125.557755,28.589178 133.695587,42.893990 C135.005432,45.196457 136.114304,48.012505 138.130096,49.448212 C149.713165,57.698021 154.530579,70.134010 159.264969,82.629013 C162.330200,90.718758 164.853226,99.017296 168.023514,107.062965 C171.595184,116.127327 171.497787,125.900314 169.580170,134.583313 C167.207840,145.325119 164.050812,156.566238 156.120605,165.243683 C150.806564,171.058472 143.991486,173.822784 136.328506,174.854202 C125.195152,176.352768 114.183960,174.534698 103.144951,173.621460 C101.718628,173.503448 100.289154,172.719147 98.978287,172.022919 C89.450539,166.962662 79.052574,169.677155 69.075577,168.700882 C67.021690,168.499893 66.895752,169.314606 67.977768,173.206528 C69.887848,174.093307 71.494202,172.736404 73.192482,172.327621 C80.223618,170.635239 89.942505,175.003586 93.218636,181.401001 C95.200096,185.270264 94.308746,188.808487 92.111115,192.635071 C91.250000,193.000000 90.500000,193.000000 89.375000,193.000000 M141.899185,144.719055 C130.119110,147.990646 118.140617,149.694962 105.892494,149.325287 C103.550880,149.254608 101.237686,149.155258 99.038506,148.206055 C96.047729,146.915176 93.863266,144.909744 94.165833,141.443878 C94.363106,139.184143 95.763702,137.373901 98.140381,136.825562 C101.709373,136.002136 103.896179,137.863205 105.157784,140.951279 C106.218941,143.548691 107.857704,144.786102 110.794540,144.931137 C121.099060,145.440094 131.059601,143.762817 140.738647,140.434311 C145.866074,138.671036 150.363831,135.740677 153.025513,130.791519 C154.690475,127.695686 154.710770,125.054459 150.210403,124.353554 C148.093475,124.023857 146.007065,123.308167 143.995911,122.535507 C141.214584,121.466972 137.986160,120.543350 137.482010,117.036896 C136.925888,113.168831 140.505569,112.356514 142.881149,110.717316 C143.109573,110.559692 143.160217,110.144409 143.294067,109.834480 C143.164352,108.312668 142.013809,107.508789 140.903793,106.846573 C137.235291,104.657974 136.919693,102.119926 138.555634,98.118225 C141.723160,90.370102 142.001083,81.928856 142.964203,73.691498 C143.197235,71.698555 142.727234,69.744026 141.581406,67.972351 C139.352936,64.526718 137.756195,64.428978 135.307938,67.734787 C134.246658,69.167809 133.463058,71.326355 131.175644,70.437462 C129.270401,69.697098 128.904449,67.604706 128.859940,65.789452 C128.824326,64.337128 129.085037,62.747360 129.685532,61.434097 C131.464752,57.543003 129.891541,55.207207 126.599106,53.190380 C119.997169,49.146271 112.767532,46.643585 105.477707,44.286556 C85.902466,37.957272 58.516430,46.949329 48.164108,66.144913 C40.298927,80.728767 41.784904,95.688820 47.986778,110.470398 C50.883884,117.375374 54.133236,124.134079 56.968491,131.063187 C64.110962,148.518723 76.404343,159.803101 95.200974,163.410889 C110.407875,166.329681 125.623245,169.345383 141.237701,167.090988 C155.201096,165.074997 159.821167,154.005127 159.953110,141.610809 C159.998917,137.308899 157.813019,136.257568 154.113327,138.414993 C150.373001,140.596115 146.724960,142.926361 141.899185,144.719055 M50.582737,143.713394 C45.148315,140.997528 39.340183,143.370804 37.561970,149.053955 C36.616417,152.075928 37.093784,154.091949 40.765930,154.830063 C48.073013,156.298843 55.304398,158.140793 62.588078,159.732346 C64.027115,160.046783 65.772896,161.237137 67.300392,158.458801 C61.613888,154.143906 55.850983,149.730560 50.582737,143.713394 M103.174133,14.096397 C104.420395,9.899728 102.825645,7.504169 98.151688,6.456421 C95.412865,15.040743 93.740143,23.581697 93.418922,32.369888 C93.334251,34.686451 94.121666,36.663483 97.027344,36.783497 C99.944633,36.903984 100.545052,35.206608 100.799591,32.706440 C101.404915,26.760935 102.268028,20.841679 103.174133,14.096397 M55.495220,32.007252 C51.525818,28.059109 47.640030,24.013142 41.992149,19.945868 C38.330132,33.752182 38.310318,46.771896 39.039917,59.868416 C40.605270,49.045956 40.389500,37.925564 44.870834,27.096596 C51.991119,30.685970 55.678051,37.295788 62.516747,41.630280 C60.877785,37.368053 58.188210,35.111366 55.495220,32.007252 M54.509785,171.049362 C56.835552,170.256836 59.344166,169.935593 62.082024,168.009567 C54.222012,165.356308 46.674816,163.903336 38.994850,163.500626 C35.488033,163.316757 34.458633,165.784348 36.169678,168.954086 C37.619110,171.639160 39.696419,173.211838 42.961826,173.060532 C46.635941,172.890274 50.189934,172.137909 54.509785,171.049362 z"/>
  <path fill="#000000" opacity="1" stroke="none" d=" M94.852676,98.740494 C102.727463,101.177567 109.606415,104.635040 115.785248,109.817947 C98.827858,110.065598 81.991966,106.037682 65.004791,110.627831 C66.623871,101.843102 82.519768,95.831444 94.852676,98.740494 z"/>

  <path fill="#b64243" opacity="1" stroke="none" d=" M102.779106,119.175217 C93.673286,119.428551 86.026245,123.233742 78.147171,126.267899 C73.967102,127.877609 69.778366,129.449265 65.167496,129.364059 C62.134285,129.307999 59.655216,128.205124 57.781418,125.872375 C55.435535,122.951897 54.779976,119.784195 57.679836,116.932243 C60.569855,114.089966 63.233322,115.715691 65.381065,118.138786 C68.761520,121.952614 72.725250,121.027023 76.875229,120.037842 C85.542519,117.971924 94.035919,114.505379 103.261162,116.530876 C104.712479,116.849525 106.246162,116.853905 107.611893,118.315712 C106.348412,119.832359 104.645775,119.042480 102.779106,119.175217 z"/>
  <path fill="#b64243" opacity="1" stroke="none" d=" M122.079163,62.218483 C123.883759,68.437744 125.543854,74.286476 125.384560,80.472328 C124.516136,80.472328 123.995628,80.578888 123.935173,80.457092 C120.323738,73.181221 114.658005,67.621277 108.877396,62.117886 C106.932571,60.266315 105.892807,57.723602 105.199966,55.111053 C104.575394,52.755959 104.368912,50.423233 106.627846,48.762596 C108.934723,47.066723 111.127579,48.182087 113.117149,49.438572 C117.730949,52.352348 119.919304,57.056843 122.079163,62.218483 z"/>
  <path fill="#b64243" opacity="1" stroke="none" d=" M81.915192,137.260986 C79.971642,137.958084 78.388824,138.448242 76.707848,137.854950 C74.744308,137.161942 72.976646,136.181351 72.917770,133.807739 C72.859383,131.453690 74.466881,129.648605 76.471992,129.732269 C84.658607,130.073883 92.522835,128.302979 100.454597,126.822426 C101.055557,126.710251 101.803932,127.387840 103.773689,128.287384 C95.337379,130.476395 88.706802,133.573242 81.915192,137.260986 z"/>
  <path fill="#b64243" opacity="1" stroke="none" d=" M109.244125,76.519821 C105.227867,77.637283 102.431114,75.590668 99.760742,73.689728 C96.156113,71.123734 92.699936,68.312279 90.110413,64.930069 C90.903786,63.077179 92.062332,63.040897 93.249939,63.303917 C98.140007,64.386925 103.002411,65.714714 107.115974,68.642418 C109.625435,70.428452 112.433968,72.621643 109.244125,76.519821 z"/>
</svg>